<svg width="88" height="34" viewBox="0 0 88 34" fill="none" xmlns="http://www.w3.org/2000/svg">
<g clip-path="url(#clip0_1_733)">
<path d="M0 19.1612L12.617 25.442L25.3726 19.0919L38.1421 25.442L50.8977 19.0919L63.6672 25.442L76.4229 19.0919L88 24.8596V23.0849L76.4229 17.3172L63.6672 23.6673L50.8977 17.3172L38.1421 23.6673L25.3726 17.3172L12.617 23.6673L0 17.3865V19.1612Z" fill="#F9FAFB"/>
<path d="M0 27.286L12.617 33.5667L25.3726 27.2167L38.1421 33.5667L50.8977 27.2167L63.6672 33.5667L76.4229 27.2167L88 32.9844V31.2097L76.4229 25.442L63.6672 31.792L50.8977 25.442L38.1421 31.792L25.3726 25.442L12.617 31.792L0 25.5251V27.286Z" fill="#F9FAFB"/>
<path d="M0 1.84402L12.617 8.12478L25.3726 1.7747L38.1421 8.12478L50.8977 1.7747L63.6672 8.12478L76.4229 1.7747L88 7.5286V5.7539L76.4229 0L63.6672 6.35009L50.8977 0L38.1421 6.35009L25.3726 0L12.617 6.35009L0 0.0693241V1.84402Z" fill="#F9FAFB"/>
<path d="M0 9.96881L12.617 16.2496L25.3726 9.89948L38.1421 16.2496L50.8977 9.89948L63.6672 16.2496L76.4229 9.89948L88 15.6534V13.8787L76.4229 8.12479L63.6672 14.4749L50.8977 8.12479L38.1421 14.4749L25.3726 8.12479L12.617 14.4749L0 8.19411V9.96881Z" fill="#F9FAFB"/>
</g>
<defs>
<clipPath id="clip0_1_733">
<rect width="88" height="33.5667" fill="white"/>
</clipPath>
</defs>
</svg>
